<svg width="370" height="123" viewBox="0 0 370 123" fill="none" xmlns="http://www.w3.org/2000/svg">
<path d="M152.084 98.3893L149.53 108.058L152.084 98.3893ZM297.546 98.3893L292.207 89.9335V89.9335L297.546 98.3893ZM9.90326 84.4495C11.1113 83.7698 13.5601 82.9671 17.7692 82.5417C21.8448 82.1299 26.8955 82.1342 32.7929 82.5443C44.5886 83.3645 58.8215 85.7346 73.623 88.8385C103.253 95.0521 133.692 103.874 149.53 108.058L154.638 88.7209C139.437 84.7056 108.031 75.619 77.7278 69.2643C62.5624 66.0841 47.3062 63.5052 34.1802 62.5925C27.6168 62.1361 21.3485 62.0781 15.7582 62.6431C10.3014 63.1946 4.7373 64.4079 0.0967407 67.0187L9.90326 84.4495ZM149.53 108.058C165.11 112.173 191.778 118.957 219.991 121.301C247.845 123.614 279.202 121.797 302.884 106.845L292.207 89.9335C274.196 101.305 248.341 103.587 221.647 101.369C195.312 99.1819 170.095 92.8042 154.638 88.7209L149.53 108.058ZM302.884 106.845C326.083 92.1981 342.707 66.3671 353.327 45.4147C358.728 34.7599 362.767 24.979 365.459 17.8569C366.807 14.2901 367.823 11.3751 368.508 9.33226C368.85 8.31048 369.11 7.50576 369.288 6.94558C369.377 6.66545 369.445 6.44636 369.493 6.29173C369.517 6.21442 369.536 6.15321 369.55 6.10853C369.556 6.08619 369.562 6.06798 369.566 6.05396C369.568 6.04694 369.57 6.04098 369.572 6.03607C369.572 6.03362 369.573 6.03072 369.574 6.02949C369.574 6.02686 369.575 6.0245 360 3.14037C350.425 0.256233 350.425 0.254395 350.426 0.252815C350.426 0.25264 350.426 0.25132 350.427 0.250961C350.427 0.250244 350.427 0.250557 350.426 0.251907C350.425 0.254608 350.423 0.261429 350.42 0.272316C350.413 0.294098 350.402 0.332153 350.385 0.386047C350.352 0.493858 350.298 0.665016 350.225 0.896141C350.078 1.35847 349.852 2.06028 349.545 2.97459C348.932 4.80399 348 7.47945 346.75 10.7857C344.247 17.4098 340.489 26.5055 335.488 36.3725C325.304 56.4638 310.701 78.2573 292.207 89.9335L302.884 106.845Z" fill="url(#paint0_linear_12654_136)"/>
<defs>
<linearGradient id="paint0_linear_12654_136" x1="366.339" y1="51.7843" x2="4.76845" y2="52.033" gradientUnits="userSpaceOnUse">
<stop stop-color="#FCDED1" stop-opacity="0.3"/>
<stop offset="0.217132" stop-color="#FCDED1" stop-opacity="0"/>
<stop offset="0.721638" stop-color="#FCDED1" stop-opacity="0"/>
<stop offset="0.99131" stop-color="#FCDED1" stop-opacity="0.5"/>
</linearGradient>
</defs>
</svg>
