<svg width="1155" height="363" viewBox="0 0 1155 363" fill="none" xmlns="http://www.w3.org/2000/svg">
<path d="M1145.1 118.167C1137.42 122.484 1126.11 125.516 1111.22 127.022C1096.46 128.513 1078.89 128.44 1059.22 127.072C1019.87 124.336 973.029 116.494 925.095 106.442C829.2 86.3327 730.384 57.7108 680.229 44.4619L675.121 63.7986C724.638 76.879 824.422 105.766 920.99 126.016C969.288 136.145 1017.15 144.195 1057.83 147.024C1078.17 148.438 1096.95 148.565 1113.23 146.92C1129.37 145.289 1143.8 141.846 1154.9 135.598L1145.1 118.167ZM680.229 44.4619C630.332 31.281 546.299 9.94523 457.775 2.59203C369.611 -4.73133 274.998 1.61868 205.219 45.6745L215.896 62.586C280.004 22.111 369.115 15.2964 456.12 22.5234C542.765 29.7206 625.347 50.6503 675.121 63.7986L680.229 44.4619ZM205.219 45.6745C135.923 89.4253 84.773 167.911 51.1514 234.243C34.25 267.588 21.5915 298.239 13.1551 320.559C8.93468 331.725 5.76522 340.821 3.64493 347.145C2.58466 350.308 1.78636 352.778 1.24984 354.469C0.981569 355.314 0.778711 355.965 0.641245 356.41C0.57251 356.632 0.52012 356.803 0.484071 356.921C0.466046 356.98 0.452106 357.026 0.442251 357.059C0.437325 357.075 0.433417 357.088 0.430532 357.097C0.42909 357.102 0.427691 357.107 0.42697 357.109C0.425828 357.113 0.424939 357.116 10 360C19.5751 362.884 19.5747 362.885 19.5746 362.886C19.5749 362.885 19.575 362.884 19.5756 362.882C19.5768 362.879 19.579 362.871 19.5822 362.861C19.5886 362.839 19.5991 362.805 19.6136 362.757C19.6427 362.662 19.6879 362.514 19.7494 362.315C19.8724 361.917 20.0603 361.315 20.313 360.518C20.8185 358.926 21.5833 356.558 22.6075 353.503C24.6563 347.392 27.7414 338.536 31.8633 327.631C40.1115 305.808 52.4886 275.842 68.9906 243.285C102.176 177.815 151.305 103.366 215.896 62.586L205.219 45.6745Z" fill="url(#paint0_linear_21_11)"/>
<defs>
<linearGradient id="paint0_linear_21_11" x1="-10.3566" y1="203.791" x2="1150.74" y2="202.993" gradientUnits="userSpaceOnUse">
<stop offset="0.0833333" stop-color="#FCDED1" stop-opacity="0"/>
<stop offset="0.322917" stop-color="#FCDED1" stop-opacity="0.6"/>
<stop offset="0.713542" stop-color="#FCDED1" stop-opacity="0"/>
<stop offset="0.911458" stop-color="#FCDED1" stop-opacity="0.2"/>
</linearGradient>
</defs>
</svg>
