<svg width="1155" height="363" viewBox="0 0 1155 363" fill="none" xmlns="http://www.w3.org/2000/svg">
<path d="M477.325 308.87L474.771 318.538L477.325 308.87ZM944.443 308.87L949.781 317.325L944.443 308.87ZM9.9032 244.833C17.5776 240.516 28.8857 237.484 43.7819 235.978C58.5446 234.487 76.1097 234.56 95.7844 235.928C135.134 238.664 181.971 246.506 229.905 256.558C325.8 276.667 424.616 305.289 474.771 318.538L479.879 299.201C430.362 286.121 330.578 257.234 234.01 236.984C185.712 226.855 137.852 218.805 97.1716 215.976C76.8312 214.562 58.0481 214.435 41.7709 216.08C25.6271 217.711 11.2037 221.154 0.0968018 227.402L9.9032 244.833ZM474.771 318.538C524.668 331.719 608.701 353.055 697.225 360.408C785.389 367.731 880.002 361.381 949.781 317.325L939.104 300.414C874.996 340.889 785.885 347.704 698.88 340.477C612.235 333.279 529.653 312.35 479.879 299.201L474.771 318.538ZM949.781 317.325C1019.08 273.575 1070.23 195.089 1103.85 128.757C1120.75 95.4124 1133.41 64.7609 1141.84 42.4406C1146.07 31.2747 1149.23 22.1786 1151.36 15.8546C1152.42 12.6922 1153.21 10.2218 1153.75 8.5311C1154.02 7.6857 1154.22 7.03516 1154.36 6.59036C1154.43 6.36798 1154.48 6.19702 1154.52 6.07886C1154.53 6.01978 1154.55 5.97388 1154.56 5.94138C1154.56 5.92514 1154.57 5.9122 1154.57 5.90268C1154.57 5.89789 1154.57 5.89325 1154.57 5.89087C1154.57 5.88708 1154.58 5.88412 1145 3C1135.42 0.115875 1135.43 0.114624 1135.43 0.114197C1135.43 0.115173 1135.43 0.115601 1135.42 0.117554C1135.42 0.12146 1135.42 0.128754 1135.42 0.139343C1135.41 0.160522 1135.4 0.195007 1135.39 0.242645C1135.36 0.337891 1135.31 0.485718 1135.25 0.684692C1135.13 1.08264 1134.94 1.68527 1134.69 2.48166C1134.18 4.07449 1133.42 6.44199 1132.39 9.49692C1130.34 15.6075 1127.26 24.464 1123.14 35.3694C1114.89 57.1917 1102.51 87.1581 1086.01 119.715C1052.82 185.185 1003.7 259.634 939.104 300.414L949.781 317.325Z" fill="url(#paint0_linear_12623_331)"/>
<defs>
<linearGradient id="paint0_linear_12623_331" x1="1165.36" y1="159.209" x2="4.25644" y2="160.007" gradientUnits="userSpaceOnUse">
<stop stop-color="#FCDED1" stop-opacity="0.3"/>
<stop offset="0.217132" stop-color="#FCDED1" stop-opacity="0"/>
<stop offset="0.721638" stop-color="#FCDED1" stop-opacity="0"/>
<stop offset="0.99131" stop-color="#FCDED1" stop-opacity="0.5"/>
</linearGradient>
</defs>
</svg>
