<svg width="370" height="122" viewBox="0 0 370 122" fill="none" xmlns="http://www.w3.org/2000/svg">
<path d="M217.916 23.7423L220.47 14.074V14.074L217.916 23.7423ZM72.4543 23.7423L67.1157 15.2866L72.4543 23.7423ZM360.097 37.6821C358.889 38.3618 356.44 39.1645 352.231 39.5899C348.155 40.0017 343.105 39.9973 337.207 39.5873C325.411 38.7671 311.178 36.397 296.377 33.293C266.747 27.0795 236.308 18.2577 220.47 14.074L215.362 33.4107C230.563 37.426 261.969 46.5126 292.272 52.8673C307.438 56.0475 322.694 58.6264 335.82 59.5391C342.383 59.9955 348.652 60.0535 354.242 59.4885C359.699 58.937 365.263 57.7237 369.903 55.1129L360.097 37.6821ZM220.47 14.074C204.89 9.95817 178.222 3.17432 150.009 0.830802C122.155 -1.48289 90.798 0.334563 67.1157 15.2866L77.7929 32.1981C95.8036 20.8269 121.659 18.5448 148.353 20.7622C174.688 22.9497 199.905 29.3274 215.362 33.4107L220.47 14.074ZM67.1157 15.2866C43.9166 29.9335 27.2929 55.7645 16.6727 76.7169C11.272 87.3717 7.23323 97.1526 4.54128 104.275C3.19313 107.842 2.17712 110.757 1.49222 112.799C1.14964 113.821 0.889522 114.626 0.711755 115.186C0.622861 115.466 0.554524 115.685 0.506735 115.84C0.482839 115.917 0.464076 115.978 0.450445 116.023C0.443629 116.045 0.438096 116.064 0.433846 116.078C0.43172 116.085 0.429915 116.091 0.428431 116.096C0.42769 116.098 0.426815 116.101 0.426445 116.102C0.425653 116.105 0.424939 116.107 10 118.991C19.5751 121.875 19.5745 121.877 19.574 121.879C19.574 121.879 19.5736 121.88 19.5735 121.881C19.5733 121.881 19.5733 121.881 19.5738 121.88C19.5746 121.877 19.5766 121.87 19.58 121.859C19.5866 121.837 19.5983 121.799 19.6149 121.746C19.6482 121.638 19.7016 121.467 19.7749 121.235C19.9216 120.773 20.1483 120.071 20.4548 119.157C21.0682 117.328 21.9999 114.652 23.2495 111.346C25.7532 104.722 29.5106 95.6261 34.5119 85.7591C44.6956 65.6678 59.299 43.8743 77.7929 32.1981L67.1157 15.2866Z" fill="url(#paint0_linear_12654_156)"/>
<defs>
<linearGradient id="paint0_linear_12654_156" x1="3.66088" y1="70.3473" x2="365.232" y2="70.0986" gradientUnits="userSpaceOnUse">
<stop offset="0.0833333" stop-color="#FCDED1" stop-opacity="0"/>
<stop offset="0.322917" stop-color="#FCDED1" stop-opacity="0.6"/>
<stop offset="0.713542" stop-color="#FCDED1" stop-opacity="0"/>
<stop offset="0.911458" stop-color="#FCDED1" stop-opacity="0.2"/>
</linearGradient>
</defs>
</svg>
